<svg version="1.2" xmlns="http://www.w3.org/2000/svg" viewBox="0 0 1650 420" width="1650" height="420"><defs><clipPath clipPathUnits="userSpaceOnUse" id="cp1"><path d="m600.54 197.13c-1.61 0-2.89-1.83-2.94-4.13l0.53-62.79-10.83 61.42c-0.57 3.21-3.49 5.5-6.47 5.5h-14.44c-2.98 0-4.87-2.29-4.3-5.5l26.47-150.11c0.52-2.98 3.26-5.5 6.24-5.5h18.1c2.06 0 3.68 2.52 3.84 5.5-0.21 25.9-0.46 52.02-0.67 77.92l-0.16 35.98 12.53-35.98c8.92-25.9 17.88-52.02 26.8-77.92 0.99-2.98 3.72-5.5 5.79-5.5h18.1c2.98 0 4.83 2.52 4.3 5.5l-26.46 150.11c-0.57 3.21-3.26 5.5-6.24 5.5h-14.44c-2.98 0-5.1-2.29-4.53-5.5l10.83-61.42-21.62 62.79c-0.86 2.3-2.79 4.13-4.39 4.13zm146.22-24.75c-2.35 13.29-14.83 24.29-28.2 24.75h-25.9c-12.98-0.46-21.81-11.46-19.47-24.75l23.07-130.86c0.57-3.21 3.49-5.5 6.47-5.5h14.21c2.98 0 5.1 2.29 4.53 5.5l-21.61 122.61c-0.81 4.58 2.4 8.48 6.98 8.48h6.19c4.81 0 9.39-3.9 10.2-8.48l21.62-122.61c0.56-3.21 3.26-5.5 6.24-5.5h14.44c2.97 0 4.86 2.29 4.3 5.5zm56.73-135.9c2.98 0 4.82 2.52 4.3 5.5l-13.86 78.61 26.49-21.54 10.06-57.07c0.52-2.98 3.49-5.5 6.47-5.5h14.2c3.21 0 5.06 2.52 4.54 5.5l-26.39 149.65c-0.57 3.21-3.26 5.5-6.47 5.5h-14.21c-2.98 0-5.09-2.29-4.53-5.5l11.36-64.4-26.45 21.32-7.6 43.08c-0.56 3.21-3.26 5.5-6.24 5.5h-14.44c-2.97 0-5.09-2.29-4.53-5.5l26.39-149.65c0.52-2.98 3.49-5.5 6.47-5.5zm124.76 160.65c-3.21 0-6.65 0-19.71 0l0.45-50.65-35.72 28.42-7.58 22.23c-3.44 0-6.42 0-19.71 0-3.21 0-4.6-2.52-3.66-5.27 8.8-25.21 17.1-50.19 25.59-74.94 8.76-24.98 17.33-50.19 25.63-75.17 1.25-3.21 4.6-5.27 7.57-5.27h28.65c2.98 0 5.6 2.06 5.72 5.27-0.28 24.98-0.83 50.19-0.88 75.17q-0.36 37.13-0.84 74.94c-0.02 2.75-2.3 5.27-5.51 5.27zm-18.87-74.94l0.48-53.39-25.04 73.1zm75.01 74.94c-1.6 0-2.88-1.83-2.94-4.12l0.53-62.8-10.83 61.42c-0.56 3.21-3.49 5.5-6.47 5.5h-14.43c-2.98 0-4.87-2.29-4.3-5.5l26.46-150.11c0.53-2.98 3.26-5.5 6.24-5.5h18.11c2.06 0 3.68 2.52 3.84 5.5-0.21 25.9-0.46 52.03-0.68 77.92l-0.15 35.98 12.53-35.98c8.92-25.89 17.88-52.02 26.8-77.92 0.98-2.98 3.72-5.5 5.78-5.5h18.11c2.98 0 4.82 2.52 4.3 5.5l-26.47 150.11c-0.56 3.21-3.26 5.5-6.24 5.5h-14.44c-2.98 0-5.09-2.29-4.53-5.5l10.83-61.42-21.61 62.8c-0.86 2.29-2.79 4.12-4.39 4.12zm107.7 0c-1.6 0-2.88-1.83-2.94-4.12l0.53-62.8-10.83 61.42c-0.56 3.21-3.49 5.5-6.47 5.5h-14.44c-2.98 0-4.86-2.29-4.3-5.5l26.47-150.11c0.52-2.98 3.26-5.5 6.24-5.5h18.1c2.07 0 3.68 2.52 3.85 5.5-0.22 25.9-0.47 52.03-0.68 77.92l-0.15 35.98 12.53-35.98c8.92-25.89 17.88-52.02 26.8-77.92 0.98-2.98 3.72-5.5 5.78-5.5h18.1c2.98 0 4.83 2.52 4.31 5.5l-26.47 150.11c-0.57 3.21-3.26 5.5-6.24 5.5h-14.44c-2.98 0-5.09-2.29-4.53-5.5l10.83-61.42-21.61 62.8c-0.87 2.29-2.79 4.12-4.4 4.12zm148.78-160.19c2.98 0 4.83 2.52 4.31 5.5l-2.51 14.21c-0.52 2.98-3.26 5.5-6.24 5.5h-27.04l-7.56 42.85h19.48c2.98 0 5.06 2.52 4.53 5.5l-2.54 14.44c-0.49 2.75-3.45 5.27-6.43 5.27h-19.48l-7.4 41.94h27.05c2.97 0 4.86 2.29 4.34 5.27l-2.55 14.44c-0.52 2.98-3.22 5.27-6.2 5.27h-46.98c-2.98 0-4.87-2.29-4.34-5.27l26.34-149.42c0.53-2.98 3.26-5.5 6.24-5.5zm68.42-0.69c13.52 0 22.77 11.23 20.38 24.75l-19.64 111.38c-2.38 13.52-15.59 24.75-29.11 24.75h-44.69c-2.98 0-5.05-2.52-4.53-5.5l26.43-149.88c0.52-2.98 3.49-5.5 6.47-5.5zm-29.31 24.52l-19.71 111.84h16.04c4.81 0 9.39-3.9 10.2-8.48l16.73-94.88c0.81-4.58-2.4-8.48-7.21-8.48zm182.42-24.75c2.98 0 5.1 2.29 4.57 5.27l-26.54 150.57c-0.53 2.98-3.46 5.27-6.43 5.27h-15.36c-2.29 0-4.41-2.29-4.57-5.27-1.97-25.21-3.76-50.19-5.77-75.17l-0.92-11.69-15.31 86.86c-0.53 2.98-3.45 5.27-6.43 5.27h-14.44c-2.98 0-5.09-2.29-4.57-5.27l26.55-150.57c0.52-2.98 3.45-5.27 6.43-5.27h17.87c2.29 0 4.41 2.29 4.8 5.27 1.75 25.21 3.53 50.19 5.73 75.4l0.14 1.83 13.61-77.23c0.53-2.98 3.22-5.27 6.2-5.27zm67.86 136.36c-2.35 13.29-14.83 24.29-28.2 24.75h-25.9c-12.98-0.46-21.81-11.46-19.47-24.75l23.07-130.86c0.57-3.21 3.49-5.5 6.47-5.5h14.21c2.98 0 5.1 2.29 4.53 5.5l-21.62 122.61c-0.8 4.58 2.41 8.48 6.99 8.48h6.19c4.81 0 9.39-3.9 10.2-8.48l21.62-122.61c0.56-3.21 3.26-5.5 6.24-5.5h14.44c2.97 0 4.86 2.29 4.3 5.5zm82.77 19.25c-0.53 2.98-3.49 5.5-6.47 5.5h-14.44c-2.98 0-4.83-2.52-4.3-5.5l7.31-41.48 0.33-1.83c0.8-4.58-2.4-8.48-6.99-8.48h-14.44l-1.25 7.1-7.88 44.69c-0.52 2.98-3.26 5.5-6.47 5.5h-14.21c-3.2 0-5.05-2.52-4.53-5.5l26.43-149.87c0.52-2.98 3.26-5.51 6.47-5.51h40.56c14.9 0 24.9 12.15 22.51 27.05l-0.04 0.23-4.69 26.58c-0.61 3.44-2.71 7.56-4.87 9.4l-18.49 16.5c10.29 2.75 16.57 12.6 14.55 24.06zm-6.42-102.67l4.49-25.44c0.28-1.6-0.89-2.75-2.27-2.75h-20.85l-9.34 52.94zm-986.64 135.25c2.98 0 5.06 2.52 4.53 5.5l-2.5 14.21c-0.53 2.98-3.49 5.5-6.47 5.5h-16.96l-22.91 129.94c-0.52 2.98-3.45 5.27-6.43 5.27h-14.44c-2.98 0-5.09-2.29-4.57-5.27l22.91-129.94h-16.96c-2.98 0-5.05-2.52-4.53-5.5l2.51-14.21c0.52-2.98 3.49-5.5 6.47-5.5zm63.61 160.42c-3.21 0-6.64 0-19.71 0l0.45-50.65-35.72 28.42-7.58 22.23c-3.44 0-6.42 0-19.71 0-3.21 0-4.6-2.52-3.66-5.27 8.8-25.21 17.1-50.19 25.59-74.94 8.76-24.98 17.33-50.19 25.63-75.17 1.25-3.21 4.6-5.27 7.58-5.27h28.64c2.98 0 5.6 2.06 5.72 5.27-0.28 24.98-0.83 50.19-0.88 75.17q-0.36 37.13-0.84 74.94c-0.02 2.75-2.3 5.27-5.51 5.27zm-18.87-74.94l0.48-53.4-25.04 73.11zm38.4 69.44l2.46-13.98c0.53-2.98 3.27-5.5 6.47-5.5h21.32c4.58 0 9.16-3.9 9.97-8.48l4.65-26.35-28.95-20.4c-2.24-1.61-3.57-5.73-2.92-9.4l0.72-4.12 3.6-20.4 3.84-21.77c2.38-13.52 14.86-24.52 28.5-25.21h31.17c2.98 0 5.06 2.52 4.53 5.5l-2.42 13.75c-0.53 2.98-3.49 5.5-6.47 5.5h-21.09c-4.81 0-9.43 4.13-10.24 8.71l-5.17 29.33 28.68 20.63c2.46 1.6 3.8 5.73 3.15 9.4l-0.12 0.68-7.47 42.4c-2.39 13.52-15.1 24.52-28.28 25.21h-31.4c-3.21 0-5.06-2.52-4.53-5.5zm150.77-155.84c12.67 0.92 21.04 11.92 18.78 24.75l-19.72 111.84c-2.3 13.06-14.51 23.83-27.51 24.75h-26.58c-12.9-0.92-21.09-11.69-18.78-24.75l19.71-111.84c2.27-12.83 14.29-23.83 27.51-24.75zm-34.66 136.82c4.58 0 9.17-3.9 9.97-8.48l16.81-95.34c0.81-4.58-2.4-8.48-6.98-8.48h-5.73c-4.58 0-9.17 3.9-9.98 8.48l-16.8 95.34c-0.81 4.58 2.4 8.48 6.98 8.48zm68.1 19.25q0.42-37.47 0.84-74.94c0.28-24.98 0.56-49.96 0.8-74.71 0.07-2.98 2.34-5.5 5.32-5.5 2.52 0 4.82 0 14.44 0 2.98 0 5.29 2.52 5.45 5.5-0.4 25.67-0.61 51.56-0.83 77.46l-0.25 26.12 8.96-26.12c8.92-25.9 17.61-51.79 26.49-77.46 0.99-2.98 4.41-5.5 7.39-5.5 2.29 0 4.81 0 14.21 0 2.98 0 4.6 2.52 3.61 5.5-8.49 24.75-17.02 49.73-25.55 74.71q-12.79 37.47-25.58 74.94c-1.22 2.98-4.37 5.27-7.35 5.27h-22.46c-2.98 0-5.55-2.29-5.49-5.27zm138.18 5.27c-3.21 0-6.65 0-19.71 0l0.45-50.65-35.72 28.42-7.58 22.23c-3.44 0-6.42 0-19.71 0-3.21 0-4.6-2.52-3.66-5.27 8.8-25.21 17.1-50.19 25.59-74.94 8.76-24.98 17.33-50.19 25.63-75.17 1.25-3.21 4.6-5.27 7.57-5.27h28.65c2.98 0 5.6 2.06 5.72 5.27-0.28 24.98-0.83 50.19-0.88 75.17q-0.36 37.12-0.84 74.94c-0.02 2.75-2.3 5.27-5.51 5.27zm-18.87-74.94l0.48-53.4-25.04 73.11zm-287.83 80.31h11.21c1.93 0 3.26 1.55 2.96 3.46l-1.72 11.08c-0.3 1.91-2.11 3.46-4.04 3.46h-11.21c-1.93 0-3.26-1.55-2.96-3.46l1.72-11.08c0.3-1.91 2.11-3.46 4.04-3.46z"/></clipPath></defs><style>.a{fill:#ff8a00}.b{fill:#001446}</style><path fill-rule="evenodd" class="a" d="m14 386l35.3-267.4c3.8-60.1 53.7-107.6 114.6-107.6 44.9 0 83.8 25.8 102.7 63.4l25.1 37.2 21.1-37.7q2.9-6 6.4-11.5l2-3.6 0.3 0.1c19.7-28.5 52.1-46.9 90.4-46.9 63.1 0 110.6 46.1 111.1 109q0 0.5 0 1c0 3.2-0.5 6.4-1.5 9.8l-36.2 253.2h-80.4l38.7-235.4c1.9-11.9-2.4-23.4-10.6-31.2-3.5-4-8.4-6.9-13.9-8q-2.1-0.6-4.4-1c-19.1-3.1-37.1 9.8-40.2 28.9l-40.8 248.1c-6.7 0.5-13.3-0.4-13.3-0.4l-79.6-174.7q-0.2 0.1-0.3 0.2l-18.7-41.7-10.8-23.8 0.1-0.2-6.2-13.8c-4.1-11.5-14.2-20.5-27.2-22.6-19.1-3.1-37.1 9.8-40.2 28.9l-11.4 69.1-2.7 8.8-23.1 148.1-3.6 21.7zm239.3-1.6v1.6h-84.5l2.8-23.4 16.8-102.1z"/><g clip-path="url(#cp1)"><path fill-rule="evenodd" class="b" d="m600.5 197.1c-1.6 0-2.8-1.8-2.9-4.1l0.5-62.8-10.8 61.4c-0.6 3.2-3.5 5.5-6.5 5.5h-14.4c-3 0-4.9-2.3-4.3-5.5l26.5-150.1c0.5-3 3.2-5.5 6.2-5.5h18.1c2.1 0 3.7 2.5 3.8 5.5-0.2 25.9-0.4 52-0.6 77.9l-0.2 36 12.5-36c9-25.9 17.9-52 26.8-77.9 1-3 3.8-5.5 5.8-5.5h18.1c3 0 4.9 2.5 4.3 5.5l-26.4 150.1c-0.6 3.2-3.3 5.5-6.3 5.5h-14.4c-3 0-5.1-2.3-4.5-5.5l10.8-61.4-21.6 62.8c-0.9 2.3-2.8 4.1-4.4 4.1zm146.2-24.7c-2.3 13.3-14.8 24.3-28.2 24.7h-25.9c-13-0.4-21.8-11.4-19.5-24.7l23.1-130.9c0.6-3.2 3.5-5.5 6.5-5.5h14.2c3 0 5.1 2.3 4.5 5.5l-21.6 122.6c-0.8 4.6 2.4 8.5 7 8.5h6.2c4.8 0 9.4-3.9 10.2-8.5l21.6-122.6c0.6-3.2 3.2-5.5 6.2-5.5h14.5c2.9 0 4.8 2.3 4.3 5.5zm56.7-135.9c3 0 4.8 2.5 4.3 5.5l-13.9 78.6 26.5-21.5 10.1-57.1c0.5-3 3.5-5.5 6.5-5.5h14.2c3.2 0 5 2.5 4.5 5.5l-26.4 149.7c-0.6 3.2-3.3 5.5-6.5 5.5h-14.2c-2.9 0-5.1-2.3-4.5-5.5l11.4-64.4-26.5 21.3-7.6 43.1c-0.6 3.2-3.2 5.5-6.2 5.5h-14.5c-2.9 0-5.1-2.3-4.5-5.5l26.4-149.7c0.5-3 3.5-5.5 6.5-5.5zm124.7 160.7c-3.2 0-6.6 0-19.7 0l0.5-50.7-35.8 28.4-7.5 22.3c-3.5 0-6.5 0-19.8 0-3.2 0-4.5-2.5-3.6-5.3 8.8-25.2 17.1-50.2 25.6-74.9 8.7-25 17.3-50.2 25.6-75.2 1.3-3.2 4.6-5.3 7.6-5.3h28.6c3 0 5.6 2.1 5.7 5.3-0.2 25-0.8 50.2-0.8 75.2q-0.4 37.1-0.9 74.9c0 2.8-2.3 5.3-5.5 5.3zm-18.9-75l0.5-53.4-25 73.1zm75 75c-1.6 0-2.9-1.9-2.9-4.1l0.5-62.8-10.8 61.4c-0.6 3.2-3.5 5.5-6.5 5.5h-14.4c-3 0-4.9-2.3-4.3-5.5l26.4-150.1c0.5-3 3.3-5.5 6.3-5.5h18.1c2 0 3.6 2.5 3.8 5.5-0.2 25.9-0.5 52-0.7 77.9l-0.1 36 12.5-36c8.9-25.9 17.9-52 26.8-77.9 1-3 3.7-5.5 5.8-5.5h18.1c3 0 4.8 2.5 4.3 5.5l-26.5 150.1c-0.5 3.2-3.2 5.5-6.2 5.5h-14.4c-3 0-5.1-2.3-4.6-5.5l10.9-61.4-21.7 62.8c-0.8 2.2-2.8 4.1-4.4 4.1zm107.8 0c-1.7 0-2.9-1.9-3-4.1l0.5-62.8-10.8 61.4c-0.6 3.2-3.5 5.5-6.5 5.5h-14.4c-3 0-4.9-2.3-4.3-5.5l26.5-150.1c0.5-3 3.2-5.5 6.2-5.5h18.1c2.1 0 3.7 2.5 3.9 5.5-0.3 25.9-0.5 52-0.7 77.9l-0.2 36 12.6-36c8.9-25.9 17.8-52 26.8-77.9 0.9-3 3.7-5.5 5.7-5.5h18.1c3 0 4.9 2.5 4.3 5.5l-26.4 150.1c-0.6 3.2-3.3 5.5-6.3 5.5h-14.4c-3 0-5.1-2.3-4.5-5.5l10.8-61.4-21.6 62.8c-0.9 2.2-2.8 4.1-4.4 4.1zm148.8-160.2c3 0 4.8 2.5 4.3 5.5l-2.5 14.2c-0.6 3-3.3 5.5-6.3 5.5h-27l-7.6 42.9h19.5c3 0 5.1 2.5 4.5 5.5l-2.5 14.4c-0.5 2.7-3.5 5.3-6.4 5.3h-19.5l-7.4 41.9h27c3 0 4.9 2.3 4.4 5.3l-2.6 14.4c-0.5 3-3.2 5.3-6.2 5.3h-46.9c-3 0-4.9-2.3-4.4-5.3l26.4-149.4c0.5-3 3.2-5.5 6.2-5.5zm68.4-0.7c13.5 0 22.8 11.2 20.4 24.8l-19.6 111.3c-2.4 13.6-15.6 24.8-29.2 24.8h-44.6c-3 0-5.1-2.5-4.6-5.5l26.4-149.9c0.6-3 3.5-5.5 6.5-5.5zm-29.3 24.5l-19.7 111.9h16c4.9 0 9.4-3.9 10.2-8.5l16.8-94.9c0.8-4.6-2.4-8.5-7.2-8.5zm182.4-24.7c3 0 5.1 2.3 4.6 5.2l-26.6 150.6c-0.5 3-3.4 5.3-6.4 5.3h-15.4c-2.3 0-4.4-2.3-4.5-5.3-2-25.2-3.8-50.2-5.8-75.2l-0.9-11.6-15.4 86.8c-0.5 3-3.4 5.3-6.4 5.3h-14.4c-3 0-5.1-2.3-4.6-5.3l26.6-150.6c0.5-2.9 3.4-5.2 6.4-5.2h17.9c2.3 0 4.4 2.3 4.8 5.2 1.7 25.3 3.5 50.2 5.7 75.4l0.1 1.9 13.6-77.3c0.6-2.9 3.3-5.2 6.2-5.2zm67.9 136.3c-2.3 13.3-14.8 24.3-28.2 24.8h-25.9c-13-0.5-21.8-11.5-19.5-24.8l23.1-130.8c0.6-3.2 3.5-5.5 6.5-5.5h14.2c3 0 5.1 2.3 4.5 5.5l-21.6 122.6c-0.8 4.6 2.4 8.5 7 8.5h6.2c4.8 0 9.4-3.9 10.2-8.5l21.6-122.6c0.6-3.2 3.2-5.5 6.2-5.5h14.5c2.9 0 4.8 2.3 4.3 5.5zm82.7 19.2c-0.5 3-3.5 5.5-6.4 5.5h-14.5c-2.9 0-4.8-2.5-4.3-5.5l7.3-41.5 0.4-1.8c0.8-4.6-2.4-8.5-7-8.5h-14.5l-1.2 7.1-7.9 44.7c-0.5 3-3.2 5.5-6.5 5.5h-14.2c-3.2 0-5-2.5-4.5-5.5l26.4-149.9c0.6-2.9 3.3-5.5 6.5-5.5h40.6c14.9 0 24.9 12.2 22.5 27.1l-0.1 0.2-4.7 26.6c-0.6 3.4-2.7 7.6-4.8 9.4l-18.5 16.5c10.3 2.7 16.6 12.6 14.5 24.1zm-6.4-102.7l4.5-25.4c0.3-1.7-0.9-2.8-2.3-2.8h-20.8l-9.4 52.9zm-986.6 135.3c3 0 5.1 2.5 4.5 5.5l-2.5 14.2c-0.5 3-3.5 5.5-6.4 5.5h-17l-22.9 129.9c-0.5 3-3.5 5.3-6.4 5.3h-14.5c-3 0-5.1-2.3-4.5-5.3l22.9-129.9h-17c-3 0-5.1-2.5-4.5-5.5l2.5-14.2c0.5-3 3.5-5.5 6.4-5.5zm63.7 160.4c-3.2 0-6.7 0-19.7 0l0.4-50.6-35.7 28.4-7.6 22.2c-3.4 0-6.4 0-19.7 0-3.2 0-4.6-2.5-3.7-5.3 8.8-25.2 17.1-50.1 25.6-74.9 8.8-25 17.4-50.2 25.7-75.2 1.2-3.2 4.5-5.2 7.5-5.2h28.7c3 0 5.6 2 5.7 5.2-0.3 25-0.8 50.2-0.9 75.2q-0.3 37.1-0.8 74.9c-0.1 2.8-2.3 5.3-5.5 5.3zm-18.9-74.9l0.5-53.4-25.1 73.1zm38.4 69.4l2.5-14c0.5-2.9 3.3-5.5 6.5-5.5h21.3c4.6 0 9.1-3.9 10-8.4l4.6-26.4-28.9-20.4c-2.3-1.6-3.6-5.7-3-9.4l0.8-4.1 3.5-20.4 3.9-21.8c2.4-13.5 14.9-24.5 28.5-25.2h31.2c2.9 0 5 2.5 4.5 5.5l-2.4 13.8c-0.6 2.9-3.5 5.5-6.5 5.5h-21.1c-4.8 0-9.4 4.1-10.2 8.7l-5.2 29.3 28.7 20.6c2.4 1.6 3.8 5.8 3.1 9.4l-0.1 0.7-7.5 42.4c-2.3 13.5-15.1 24.5-28.2 25.2h-31.4c-3.2 0-5.1-2.5-4.6-5.5zm150.8-155.8c12.7 0.9 21 11.9 18.8 24.7l-19.7 111.9c-2.3 13-14.6 23.8-27.5 24.7h-26.6c-12.9-0.9-21.1-11.7-18.8-24.7l19.7-111.9c2.3-12.8 14.3-23.8 27.5-24.7zm-34.7 136.8c4.6 0 9.2-3.9 10-8.5l16.8-95.3c0.8-4.6-2.4-8.5-7-8.5h-5.7c-4.6 0-9.1 3.9-10 8.5l-16.8 95.3c-0.8 4.6 2.4 8.5 7 8.5zm68.1 19.2q0.4-37.4 0.9-74.9c0.2-25 0.5-50 0.8-74.7 0-3 2.3-5.5 5.3-5.5 2.5 0 4.8 0 14.4 0 3 0 5.3 2.5 5.5 5.5-0.4 25.7-0.6 51.6-0.9 77.5l-0.2 26.1 9-26.1c8.9-25.9 17.6-51.8 26.4-77.5 1-3 4.5-5.5 7.4-5.5 2.3 0 4.8 0 14.2 0 3 0 4.6 2.5 3.7 5.5-8.5 24.7-17.1 49.7-25.6 74.7q-12.8 37.5-25.6 74.9c-1.2 3-4.3 5.3-7.3 5.3h-22.5c-3 0-5.5-2.3-5.5-5.3zm138.2 5.3c-3.2 0-6.6 0-19.7 0l0.4-50.6-35.7 28.4-7.6 22.2c-3.4 0-6.4 0-19.7 0-3.2 0-4.6-2.5-3.6-5.3 8.8-25.2 17.1-50.1 25.6-74.9 8.7-25 17.3-50.2 25.6-75.2 1.2-3.2 4.6-5.2 7.6-5.2h28.6c3 0 5.6 2 5.7 5.2-0.3 25-0.8 50.2-0.8 75.2q-0.4 37.1-0.9 74.9c0 2.8-2.3 5.3-5.5 5.3zm-18.9-74.9l0.5-53.4-25 73.1zm-287.9 80.3h11.2c2 0 3.3 1.5 3 3.5l-1.7 11c-0.3 1.9-2.1 3.5-4.1 3.5h-11.2c-1.9 0-3.2-1.6-2.9-3.5l1.7-11c0.3-2 2.1-3.5 4-3.5z"/><path class="a" d="m1337-4h332v229h-332zm-628 392h31v22h-31z"/></g></svg>